<svg width="20" height="18" viewBox="0 0 20 18" fill="none" xmlns="http://www.w3.org/2000/svg">
<path d="M10 15.75L13 12.15C12.1667 11.5875 11.125 11.25 10 11.25C8.875 11.25 7.83333 11.5875 7 12.15L10 15.75Z" fill="black"/>
<path d="M10 6.75C7.75 6.75 5.675 7.4175 4 8.55L5.5 10.35C6.75 9.5025 8.30833 9 10 9C11.6917 9 13.25 9.5025 14.5 10.35L16 8.55C14.325 7.4175 12.25 6.75 10 6.75Z" fill="black"/>
<path d="M10 2.25C6.625 2.25 3.50833 3.255 1 4.95L2.5 6.75C4.58333 5.34 7.18333 4.5 10 4.5C12.8167 4.5 15.4167 5.34 17.5 6.75L19 4.95C16.4917 3.255 13.375 2.25 10 2.25Z" fill="black"/>
</svg>
