<svg width="24" height="24" viewBox="0 0 24 24" fill="none" xmlns="http://www.w3.org/2000/svg">
<path d="M7.76501 19.225C8.35501 18.965 9.01501 18.916 9.63301 19.086C10.403 19.296 11.198 19.402 12.001 19.4C16.586 19.4 20.001 16.114 20.001 11.7C20.001 7.286 16.586 4 12.001 4C7.41601 4 4.00101 7.287 4.00101 11.7C4.00101 13.97 4.89701 15.972 6.46701 17.376C6.75226 17.6287 6.98294 17.9369 7.14492 18.2818C7.30689 18.6268 7.39676 19.0011 7.40901 19.382L7.76501 19.225ZM12.001 2C17.635 2 22.001 6.127 22.001 11.7C22.001 17.273 17.634 21.4 12.001 21.4C11.0232 21.4012 10.0497 21.2721 9.10601 21.016C8.92881 20.9673 8.74024 20.9811 8.57201 21.055L6.58701 21.931C6.46714 21.984 6.33609 22.0067 6.20538 21.9972C6.07467 21.9876 5.94831 21.9461 5.83741 21.8763C5.7265 21.8065 5.63445 21.7105 5.56934 21.5967C5.50423 21.483 5.46806 21.355 5.46401 21.224L5.41001 19.444C5.4061 19.3357 5.38025 19.2294 5.33401 19.1314C5.28777 19.0334 5.22211 18.9458 5.14101 18.874C3.19601 17.134 2.00101 14.616 2.00101 11.7C2.00101 6.127 6.36701 2 12.001 2ZM5.99601 14.537L8.93301 9.877C9.04351 9.70155 9.18919 9.55092 9.36085 9.43462C9.5325 9.31831 9.7264 9.23886 9.93031 9.20127C10.1342 9.16368 10.3437 9.16878 10.5456 9.21624C10.7474 9.2637 10.9372 9.35249 11.103 9.477L13.439 11.227C13.5431 11.3056 13.67 11.3481 13.8005 11.3481C13.931 11.3481 14.0579 11.3056 14.162 11.227L17.317 8.832C17.738 8.512 18.288 9.016 18.006 9.463L15.069 14.123C14.9585 14.2984 14.8128 14.4491 14.6412 14.5654C14.4695 14.6817 14.2756 14.7611 14.0717 14.7987C13.8678 14.8363 13.6583 14.8312 13.4565 14.7838C13.2546 14.7363 13.0648 14.6475 12.899 14.523L10.563 12.773C10.4589 12.6944 10.332 12.6519 10.2015 12.6519C10.071 12.6519 9.94413 12.6944 9.84001 12.773L6.68501 15.17C6.26401 15.489 5.71401 14.985 5.99601 14.537Z" fill="black"/>
</svg>
